<svg width="46" height="12" viewBox="0 0 46 12" fill="none" xmlns="http://www.w3.org/2000/svg">
<path d="M6.6582 6.91211H7.65625C7.65625 7.6276 7.45117 8.16536 7.04102 8.52539C6.63542 8.88086 6.08398 9.05859 5.38672 9.05859C4.90365 9.05859 4.48438 8.94694 4.12891 8.72363C3.77799 8.50033 3.50456 8.19043 3.30859 7.79395C3.11719 7.39746 3.02148 6.93717 3.02148 6.41309V5.62695C3.02148 5.10286 3.11719 4.64258 3.30859 4.24609C3.50456 3.84961 3.77799 3.53971 4.12891 3.31641C4.48438 3.0931 4.90365 2.98145 5.38672 2.98145C6.08398 2.98145 6.6377 3.15918 7.04785 3.51465C7.45801 3.87012 7.66309 4.4056 7.66309 5.12109H6.66504C6.66504 4.66992 6.55566 4.34635 6.33691 4.15039C6.12272 3.95443 5.80599 3.85645 5.38672 3.85645C5.08594 3.85645 4.83301 3.93164 4.62793 4.08203C4.42285 4.23242 4.2679 4.44206 4.16309 4.71094C4.05827 4.97526 4.00586 5.27832 4.00586 5.62012V6.41309C4.00586 6.75944 4.05827 7.06706 4.16309 7.33594C4.2679 7.60026 4.42285 7.80762 4.62793 7.95801C4.83301 8.1084 5.08594 8.18359 5.38672 8.18359C5.80599 8.18359 6.12272 8.08561 6.33691 7.88965C6.55111 7.69368 6.6582 7.36784 6.6582 6.91211ZM1.41504 6.0166C1.41504 6.62272 1.51986 7.18783 1.72949 7.71191C1.93913 8.236 2.23079 8.69401 2.60449 9.08594C2.97819 9.47786 3.41113 9.7832 3.90332 10.002C4.39551 10.2207 4.92188 10.3301 5.48242 10.3301C6.04297 10.3301 6.56706 10.2207 7.05469 10.002C7.54688 9.7832 7.97754 9.47786 8.34668 9.08594C8.72038 8.69401 9.01204 8.236 9.22168 7.71191C9.43132 7.18783 9.53613 6.62272 9.53613 6.0166C9.53613 5.40592 9.43132 4.84082 9.22168 4.32129C9.01204 3.80176 8.72038 3.34831 8.34668 2.96094C7.97754 2.56901 7.54688 2.26595 7.05469 2.05176C6.56706 1.83301 6.04297 1.72363 5.48242 1.72363C4.92188 1.72363 4.39551 1.83301 3.90332 2.05176C3.41113 2.26595 2.97819 2.56901 2.60449 2.96094C2.23079 3.34831 1.93913 3.80176 1.72949 4.32129C1.51986 4.84082 1.41504 5.40592 1.41504 6.0166ZM0.628906 6.0166C0.628906 5.29199 0.754232 4.61979 1.00488 4C1.25553 3.38021 1.60417 2.84017 2.05078 2.37988C2.4974 1.91504 3.01237 1.55501 3.5957 1.2998C4.18359 1.04004 4.8125 0.910156 5.48242 0.910156C6.15234 0.910156 6.77897 1.04004 7.3623 1.2998C7.9502 1.55501 8.46517 1.91504 8.90723 2.37988C9.35384 2.84017 9.70247 3.38021 9.95312 4C10.2038 4.61979 10.3291 5.29199 10.3291 6.0166C10.3291 6.74121 10.2038 7.41341 9.95312 8.0332C9.70247 8.65299 9.35384 9.19759 8.90723 9.66699C8.46517 10.1318 7.9502 10.4941 7.3623 10.7539C6.77897 11.0137 6.15234 11.1436 5.48242 11.1436C4.8125 11.1436 4.18359 11.0137 3.5957 10.7539C3.01237 10.4941 2.4974 10.1318 2.05078 9.66699C1.60417 9.19759 1.25553 8.65299 1.00488 8.0332C0.754232 7.41341 0.628906 6.74121 0.628906 6.0166ZM21.8271 9.96094V11H15.3125V10.0908L18.5732 6.46094C18.9743 6.01432 19.2842 5.63607 19.5029 5.32617C19.7262 5.01172 19.8812 4.73145 19.9678 4.48535C20.0589 4.2347 20.1045 3.97949 20.1045 3.71973C20.1045 3.3916 20.0361 3.09538 19.8994 2.83105C19.7673 2.56217 19.5713 2.34798 19.3115 2.18848C19.0518 2.02897 18.7373 1.94922 18.3682 1.94922C17.9261 1.94922 17.557 2.03581 17.2607 2.20898C16.9691 2.3776 16.7503 2.61458 16.6045 2.91992C16.4587 3.22526 16.3857 3.57617 16.3857 3.97266H15.1211C15.1211 3.41211 15.2441 2.89941 15.4902 2.43457C15.7363 1.96973 16.1009 1.60059 16.584 1.32715C17.0671 1.04915 17.6618 0.910156 18.3682 0.910156C18.9971 0.910156 19.5348 1.02181 19.9814 1.24512C20.4281 1.46387 20.7699 1.77376 21.0068 2.1748C21.2484 2.57129 21.3691 3.03613 21.3691 3.56934C21.3691 3.861 21.319 4.15723 21.2188 4.45801C21.123 4.75423 20.9886 5.05046 20.8154 5.34668C20.6468 5.6429 20.4486 5.93457 20.2207 6.22168C19.9974 6.50879 19.7581 6.79134 19.5029 7.06934L16.8369 9.96094H21.8271ZM29.5654 5.23047V6.74805C29.5654 7.5638 29.4925 8.25195 29.3467 8.8125C29.2008 9.37305 28.9912 9.82422 28.7178 10.166C28.4443 10.5078 28.1139 10.7562 27.7266 10.9111C27.3438 11.0615 26.9108 11.1367 26.4277 11.1367C26.0449 11.1367 25.6917 11.0889 25.3682 10.9932C25.0446 10.8975 24.7529 10.7448 24.4932 10.5352C24.238 10.321 24.0192 10.043 23.8369 9.70117C23.6546 9.35938 23.5156 8.94466 23.4199 8.45703C23.3242 7.9694 23.2764 7.39974 23.2764 6.74805V5.23047C23.2764 4.41471 23.3493 3.73112 23.4951 3.17969C23.6455 2.62826 23.8574 2.1862 24.1309 1.85352C24.4043 1.51628 24.7324 1.27474 25.1152 1.12891C25.5026 0.983073 25.9355 0.910156 26.4141 0.910156C26.8014 0.910156 27.1569 0.958008 27.4805 1.05371C27.8086 1.14486 28.1003 1.29297 28.3555 1.49805C28.6107 1.69857 28.8271 1.96745 29.0049 2.30469C29.1872 2.63737 29.3262 3.04525 29.4219 3.52832C29.5176 4.01139 29.5654 4.57878 29.5654 5.23047ZM28.2939 6.95312V5.01855C28.2939 4.57194 28.2666 4.18001 28.2119 3.84277C28.1618 3.50098 28.0866 3.20931 27.9863 2.96777C27.8861 2.72624 27.7585 2.53027 27.6035 2.37988C27.4531 2.22949 27.2777 2.12012 27.0771 2.05176C26.8812 1.97884 26.6602 1.94238 26.4141 1.94238C26.1133 1.94238 25.8467 1.99935 25.6143 2.11328C25.3818 2.22266 25.1859 2.39811 25.0264 2.63965C24.8714 2.88118 24.7529 3.19792 24.6709 3.58984C24.5889 3.98177 24.5479 4.45801 24.5479 5.01855V6.95312C24.5479 7.39974 24.5729 7.79395 24.623 8.13574C24.6777 8.47754 24.7575 8.77376 24.8623 9.02441C24.9671 9.27051 25.0947 9.47331 25.2451 9.63281C25.3955 9.79232 25.5687 9.91081 25.7646 9.98828C25.9652 10.0612 26.1862 10.0977 26.4277 10.0977C26.7376 10.0977 27.0088 10.0384 27.2412 9.91992C27.4736 9.80143 27.6673 9.61686 27.8223 9.36621C27.9818 9.111 28.1003 8.78516 28.1777 8.38867C28.2552 7.98763 28.2939 7.50911 28.2939 6.95312ZM37.8506 9.96094V11H31.3359V10.0908L34.5967 6.46094C34.9977 6.01432 35.3076 5.63607 35.5264 5.32617C35.7497 5.01172 35.9046 4.73145 35.9912 4.48535C36.0824 4.2347 36.1279 3.97949 36.1279 3.71973C36.1279 3.3916 36.0596 3.09538 35.9229 2.83105C35.7907 2.56217 35.5947 2.34798 35.335 2.18848C35.0752 2.02897 34.7607 1.94922 34.3916 1.94922C33.9495 1.94922 33.5804 2.03581 33.2842 2.20898C32.9925 2.3776 32.7738 2.61458 32.6279 2.91992C32.4821 3.22526 32.4092 3.57617 32.4092 3.97266H31.1445C31.1445 3.41211 31.2676 2.89941 31.5137 2.43457C31.7598 1.96973 32.1243 1.60059 32.6074 1.32715C33.0905 1.04915 33.6852 0.910156 34.3916 0.910156C35.0205 0.910156 35.5583 1.02181 36.0049 1.24512C36.4515 1.46387 36.7933 1.77376 37.0303 2.1748C37.2718 2.57129 37.3926 3.03613 37.3926 3.56934C37.3926 3.861 37.3424 4.15723 37.2422 4.45801C37.1465 4.75423 37.012 5.05046 36.8389 5.34668C36.6702 5.6429 36.472 5.93457 36.2441 6.22168C36.0208 6.50879 35.7816 6.79134 35.5264 7.06934L32.8604 9.96094H37.8506ZM45.7256 9.96094V11H39.2109V10.0908L42.4717 6.46094C42.8727 6.01432 43.1826 5.63607 43.4014 5.32617C43.6247 5.01172 43.7796 4.73145 43.8662 4.48535C43.9574 4.2347 44.0029 3.97949 44.0029 3.71973C44.0029 3.3916 43.9346 3.09538 43.7979 2.83105C43.6657 2.56217 43.4697 2.34798 43.21 2.18848C42.9502 2.02897 42.6357 1.94922 42.2666 1.94922C41.8245 1.94922 41.4554 2.03581 41.1592 2.20898C40.8675 2.3776 40.6488 2.61458 40.5029 2.91992C40.3571 3.22526 40.2842 3.57617 40.2842 3.97266H39.0195C39.0195 3.41211 39.1426 2.89941 39.3887 2.43457C39.6348 1.96973 39.9993 1.60059 40.4824 1.32715C40.9655 1.04915 41.5602 0.910156 42.2666 0.910156C42.8955 0.910156 43.4333 1.02181 43.8799 1.24512C44.3265 1.46387 44.6683 1.77376 44.9053 2.1748C45.1468 2.57129 45.2676 3.03613 45.2676 3.56934C45.2676 3.861 45.2174 4.15723 45.1172 4.45801C45.0215 4.75423 44.887 5.05046 44.7139 5.34668C44.5452 5.6429 44.347 5.93457 44.1191 6.22168C43.8958 6.50879 43.6566 6.79134 43.4014 7.06934L40.7354 9.96094H45.7256Z" fill="white"/>
</svg>
